<svg xmlns="http://www.w3.org/2000/svg" xmlns:xlink="http://www.w3.org/1999/xlink" width="500" zoomAndPan="magnify" viewBox="0 0 375 374.999991" height="500" preserveAspectRatio="xMidYMid meet" version="1.0"><defs><g/></defs><g fill="#000000" fill-opacity="1"><g transform="translate(74.787694, 250.25635)"><g><path d="M 17.59375 -0.96875 C 17.59375 -0.320312 17.269531 0 16.625 0 L 5.78125 0 C 5.132812 0 4.8125 -0.320312 4.8125 -0.96875 C 4.8125 -1.6875 4.9375 -2.328125 5.1875 -2.890625 L 6.984375 -7.59375 C 8.273438 -10.96875 9.398438 -14.765625 10.359375 -18.984375 C 11.328125 -23.203125 11.972656 -27.117188 12.296875 -30.734375 L 15.671875 -68.921875 C 15.828125 -70.773438 15.5625 -72.601562 14.875 -74.40625 C 14.195312 -76.21875 13.210938 -77.765625 11.921875 -79.046875 L 8.078125 -82.78125 C 7.671875 -83.1875 7.46875 -83.628906 7.46875 -84.109375 C 7.46875 -84.671875 7.707031 -84.953125 8.1875 -84.953125 L 22.53125 -84.953125 C 23.332031 -84.953125 23.851562 -84.550781 24.09375 -83.75 L 25.421875 -77.96875 C 26.304688 -74.425781 27.347656 -70.523438 28.546875 -66.265625 C 29.753906 -62.015625 30.921875 -58.160156 32.046875 -54.703125 L 39.53125 -32.65625 C 40.25 -30.40625 41.085938 -27.992188 42.046875 -25.421875 L 60.015625 -84.109375 C 60.015625 -84.671875 60.332031 -84.953125 60.96875 -84.953125 L 74.828125 -84.953125 C 75.628906 -84.953125 75.953125 -84.550781 75.796875 -83.75 L 74.109375 -77.84375 C 73.140625 -74.382812 72.492188 -70.46875 72.171875 -66.09375 C 71.859375 -61.71875 71.898438 -57.757812 72.296875 -54.21875 L 74.953125 -30.734375 C 75.347656 -27.191406 76.007812 -23.25 76.9375 -18.90625 C 77.863281 -14.570312 78.847656 -10.679688 79.890625 -7.234375 L 81.21875 -2.890625 C 81.375 -2.566406 81.453125 -2.242188 81.453125 -1.921875 C 81.453125 -1.609375 81.453125 -1.289062 81.453125 -0.96875 C 81.453125 -0.320312 81.171875 0 80.609375 0 L 66.15625 0 C 65.507812 0 65.1875 -0.320312 65.1875 -0.96875 C 65.1875 -1.289062 65.207031 -1.609375 65.25 -1.921875 C 65.289062 -2.242188 65.351562 -2.566406 65.4375 -2.890625 L 66.75 -7.109375 C 67.875 -10.640625 68.617188 -14.554688 68.984375 -18.859375 C 69.347656 -23.160156 69.328125 -27.078125 68.921875 -30.609375 L 66.28125 -54.34375 C 65.875 -57.875 65.25 -61.828125 64.40625 -66.203125 C 63.5625 -70.585938 62.660156 -74.507812 61.703125 -77.96875 L 61.09375 -80.125 L 47.484375 -33.859375 C 46.429688 -30.398438 45.945312 -26.5625 46.03125 -22.34375 C 46.113281 -18.132812 46.675781 -14.300781 47.71875 -10.84375 L 48.203125 -9.28125 L 49.53125 -6.390625 C 49.769531 -5.585938 49.847656 -4.820312 49.765625 -4.09375 C 49.765625 -3.289062 49.363281 -2.972656 48.5625 -3.140625 L 37.359375 -5.546875 C 36.554688 -5.785156 36.191406 -6.382812 36.265625 -7.34375 C 36.671875 -10.957031 36.628906 -14.914062 36.140625 -19.21875 C 35.660156 -23.519531 34.820312 -27.394531 33.625 -30.84375 L 23.859375 -59.890625 C 23.296875 -61.660156 22.550781 -63.46875 21.625 -65.3125 C 20.707031 -67.15625 19.6875 -68.960938 18.5625 -70.734375 L 14.703125 -30.734375 C 14.378906 -27.191406 14.378906 -23.234375 14.703125 -18.859375 C 15.023438 -14.484375 15.585938 -10.523438 16.390625 -6.984375 L 17.359375 -2.890625 C 17.429688 -2.566406 17.488281 -2.242188 17.53125 -1.921875 C 17.570312 -1.609375 17.59375 -1.289062 17.59375 -0.96875 Z M 17.59375 -0.96875 "/></g></g></g><path stroke-linecap="butt" transform="matrix(0.75, 0, 0, 0.75, -7.089825, 75.881215)" fill="none" stroke-linejoin="miter" d="M 89.979148 197.35631 C 82.713522 197.35631 75.317688 194.137559 67.786438 187.705267 L 66.317688 195.002143 L 40.078103 195.002143 L 64.848938 79.14276 L 91.802064 75.496927 L 69.963521 177.700058 C 73.34373 180.13235 76.796855 181.345892 80.328105 181.345892 C 87.265606 181.345892 93.369773 177.345892 98.651023 169.335474 C 103.927065 161.304224 108.020815 151.101098 110.927066 138.736514 C 113.859357 126.345888 115.328108 113.835471 115.328108 101.200053 C 115.328108 89.283386 112.984357 80.564635 108.302065 75.04901 C 103.614565 69.507343 97.093731 66.731301 88.734356 66.731301 C 79.598938 66.731301 71.416646 68.528176 64.182271 72.116718 C 56.979145 75.70526 51.312478 80.845885 47.192686 87.549011 C 43.072894 94.220886 41.010394 102.049012 41.010394 111.033387 C 41.010394 115.507346 41.427061 118.637554 42.255186 120.413596 C 43.114561 122.163596 43.546853 123.158388 43.546853 123.392763 C 37.229144 123.392763 32.39581 122.05943 29.046852 119.392763 C 25.723935 116.726096 24.062477 112.408387 24.062477 106.450054 C 24.062477 98.205261 27.151018 90.382344 33.317685 82.965677 C 39.510394 75.554218 47.802061 69.61151 58.177062 65.132343 C 68.583313 60.627134 79.791647 58.371925 91.802064 58.371925 C 108.432274 58.371925 120.692691 63.293801 128.583317 73.137551 C 136.499984 82.981302 140.458317 95.55422 140.458317 110.851096 C 140.458317 124.700055 138.114567 138.340681 133.427067 151.767765 C 128.776025 165.174016 122.546858 176.127142 114.749982 184.637559 C 106.979149 193.116726 98.72394 197.35631 89.979148 197.35631 Z M 89.979148 197.35631 " stroke="#000000" stroke-width="18.673143" stroke-opacity="1" stroke-miterlimit="4"/><g fill="#1803c4" fill-opacity="1"><g transform="translate(10.125018, 222.131205)"><g><path d="M 50.28125 1.78125 C 44.8125 1.78125 39.253906 -0.632812 33.609375 -5.46875 L 32.515625 0 L 12.84375 0 L 31.421875 -86.890625 L 51.640625 -89.625 L 35.25 -12.984375 C 37.800781 -11.160156 40.394531 -10.25 43.03125 -10.25 C 48.226562 -10.25 52.804688 -13.253906 56.765625 -19.265625 C 60.722656 -25.273438 63.796875 -32.925781 65.984375 -42.21875 C 68.171875 -51.507812 69.265625 -60.890625 69.265625 -70.359375 C 69.265625 -79.285156 67.507812 -85.820312 64 -89.96875 C 60.5 -94.113281 55.609375 -96.1875 49.328125 -96.1875 C 42.492188 -96.1875 36.363281 -94.84375 30.9375 -92.15625 C 25.519531 -89.46875 21.265625 -85.617188 18.171875 -80.609375 C 15.078125 -75.597656 13.53125 -69.722656 13.53125 -62.984375 C 13.53125 -59.609375 13.847656 -57.257812 14.484375 -55.9375 C 15.117188 -54.625 15.4375 -53.875 15.4375 -53.6875 C 10.695312 -53.6875 7.070312 -54.6875 4.5625 -56.6875 C 2.0625 -58.695312 0.8125 -61.9375 0.8125 -66.40625 C 0.8125 -72.59375 3.132812 -78.460938 7.78125 -84.015625 C 12.425781 -89.578125 18.644531 -94.039062 26.4375 -97.40625 C 34.226562 -100.78125 42.628906 -102.46875 51.640625 -102.46875 C 64.117188 -102.46875 73.316406 -98.773438 79.234375 -91.390625 C 85.160156 -84.015625 88.125 -74.59375 88.125 -63.125 C 88.125 -52.738281 86.367188 -42.507812 82.859375 -32.4375 C 79.359375 -22.375 74.691406 -14.15625 68.859375 -7.78125 C 63.023438 -1.40625 56.832031 1.78125 50.28125 1.78125 Z M 50.28125 1.78125 "/></g></g></g><g fill="#1803c4" fill-opacity="1"><g transform="translate(156.525376, 187.636598)"><g><path d="M 7.90625 -18.015625 C 10.363281 -18.015625 12.378906 -17.78125 13.953125 -17.3125 C 15.523438 -16.851562 16.75 -15.976562 17.625 -14.6875 C 18.5 -13.40625 18.9375 -11.566406 18.9375 -9.171875 C 18.9375 -6.597656 18.472656 -4.640625 17.546875 -3.296875 C 16.617188 -1.960938 15.375 -1.078125 13.8125 -0.640625 C 12.25 -0.210938 10.28125 0 7.90625 0 L 1.578125 0 L 1.578125 -18.015625 Z M 12.140625 -4.296875 C 12.390625 -4.546875 12.566406 -5.195312 12.671875 -6.25 C 12.773438 -7.3125 12.828125 -8.285156 12.828125 -9.171875 C 12.828125 -10.285156 12.75 -11.171875 12.59375 -11.828125 C 12.4375 -12.492188 12.160156 -13.03125 11.765625 -13.4375 C 11.128906 -14.132812 10.039062 -14.484375 8.5 -14.484375 C 8.226562 -14.484375 7.816406 -14.457031 7.265625 -14.40625 L 7.265625 -3.921875 C 7.628906 -3.878906 8.191406 -3.859375 8.953125 -3.859375 C 9.722656 -3.859375 10.410156 -3.894531 11.015625 -3.96875 C 11.617188 -4.039062 11.992188 -4.148438 12.140625 -4.296875 Z M 12.140625 -4.296875 "/></g></g></g><g fill="#000000" fill-opacity="1"><g transform="translate(177.994124, 187.636598)"><g><path d="M 1.421875 -18.015625 L 14.546875 -18.015625 L 14.546875 -14.21875 L 7.109375 -14.21875 L 7.109375 -10.9375 L 13.375 -10.9375 L 13.375 -7.515625 L 7.109375 -7.515625 L 7.109375 -3.859375 L 14.515625 -3.859375 L 14.515625 0 L 1.421875 0 Z M 1.421875 -18.015625 "/></g></g></g><g fill="#000000" fill-opacity="1"><g transform="translate(194.935302, 187.636598)"><g><path d="M 12.015625 -18.015625 L 18.015625 -18.015625 L 13.15625 0 L 4.90625 0 L 0 -18.015625 L 6.03125 -18.015625 L 8.953125 -3.921875 L 9.109375 -3.921875 Z M 12.015625 -18.015625 "/></g></g></g><g fill="#000000" fill-opacity="1"><g transform="translate(214.531348, 187.636598)"><g><path d="M 1.609375 -18.015625 L 7.296875 -18.015625 L 7.296875 0 L 1.609375 0 Z M 1.609375 -18.015625 "/></g></g></g><g fill="#000000" fill-opacity="1"><g transform="translate(225.024993, 187.636598)"><g><path d="M 6.765625 -13.15625 C 6.765625 -12.707031 6.988281 -12.359375 7.4375 -12.109375 C 7.894531 -11.859375 8.609375 -11.582031 9.578125 -11.28125 C 10.734375 -10.90625 11.6875 -10.535156 12.4375 -10.171875 C 13.1875 -9.816406 13.835938 -9.257812 14.390625 -8.5 C 14.953125 -7.738281 15.234375 -6.75 15.234375 -5.53125 C 15.234375 -1.613281 12.6875 0.34375 7.59375 0.34375 C 6.75 0.34375 5.71875 0.269531 4.5 0.125 C 3.289062 -0.0195312 2.191406 -0.207031 1.203125 -0.4375 C 1.242188 -0.882812 1.332031 -1.535156 1.46875 -2.390625 C 1.601562 -3.242188 1.734375 -3.878906 1.859375 -4.296875 C 2.597656 -4.191406 3.707031 -4.066406 5.1875 -3.921875 C 6.675781 -3.773438 7.800781 -3.703125 8.5625 -3.703125 C 9.007812 -3.703125 9.273438 -3.734375 9.359375 -3.796875 C 9.484375 -3.878906 9.582031 -4.019531 9.65625 -4.21875 C 9.726562 -4.414062 9.765625 -4.585938 9.765625 -4.734375 C 9.765625 -5.160156 9.5625 -5.484375 9.15625 -5.703125 C 8.757812 -5.921875 8.078125 -6.191406 7.109375 -6.515625 C 5.953125 -6.867188 4.992188 -7.234375 4.234375 -7.609375 C 3.472656 -7.992188 2.804688 -8.585938 2.234375 -9.390625 C 1.671875 -10.191406 1.390625 -11.242188 1.390625 -12.546875 C 1.390625 -13.472656 1.597656 -14.382812 2.015625 -15.28125 C 2.441406 -16.175781 2.875 -16.78125 3.3125 -17.09375 C 3.65625 -17.332031 4.351562 -17.554688 5.40625 -17.765625 C 6.457031 -17.972656 7.445312 -18.078125 8.375 -18.078125 C 10.738281 -18.078125 12.664062 -17.859375 14.15625 -17.421875 C 14.132812 -16.992188 14.066406 -16.410156 13.953125 -15.671875 C 13.835938 -14.941406 13.71875 -14.269531 13.59375 -13.65625 L 12.859375 -13.6875 C 10.117188 -13.875 8.375 -13.96875 7.625 -13.96875 C 7.300781 -13.96875 7.117188 -13.957031 7.078125 -13.9375 C 6.992188 -13.894531 6.921875 -13.800781 6.859375 -13.65625 C 6.796875 -13.507812 6.765625 -13.34375 6.765625 -13.15625 Z M 6.765625 -13.15625 "/></g></g></g><g fill="#000000" fill-opacity="1"><g transform="translate(242.882727, 187.636598)"><g/></g></g><g fill="#02aeed" fill-opacity="1"><g transform="translate(249.208963, 187.636598)"><g><path d="M 24.8125 0 L 19.5 0 L 19.09375 -9.921875 C 19.03125 -11.878906 18.957031 -13.363281 18.875 -14.375 L 18.78125 -14.375 C 18.519531 -13.582031 18.222656 -12.34375 17.890625 -10.65625 L 17.734375 -9.859375 L 15.546875 0 L 10.234375 0 L 8.40625 -8.875 L 8.09375 -10.46875 C 7.644531 -12.425781 7.335938 -13.726562 7.171875 -14.375 L 7.078125 -14.375 C 6.992188 -13.320312 6.921875 -11.609375 6.859375 -9.234375 C 6.835938 -9.085938 6.828125 -8.851562 6.828125 -8.53125 L 6.546875 0 L 1.203125 0 L 1.953125 -18.015625 L 11 -18.015625 L 12.546875 -10.234375 L 12.921875 -8.15625 C 13.097656 -8.8125 13.257812 -9.539062 13.40625 -10.34375 L 14.859375 -18.015625 L 24.09375 -18.015625 Z M 24.8125 0 "/></g></g></g><g fill="#000000" fill-opacity="1"><g transform="translate(276.806618, 187.636598)"><g><path d="M 12.015625 -3.953125 L 6.765625 -3.953125 L 5.8125 0 L 0 0 L 5.8125 -18.015625 L 13.25 -18.015625 L 18.8125 0 L 12.953125 0 Z M 9.359375 -14.125 L 7.484375 -7.453125 L 11.25 -7.453125 L 9.484375 -14.125 Z M 9.359375 -14.125 "/></g></g></g><g fill="#000000" fill-opacity="1"><g transform="translate(297.192799, 187.636598)"><g><path d="M 6.765625 -13.15625 C 6.765625 -12.707031 6.988281 -12.359375 7.4375 -12.109375 C 7.894531 -11.859375 8.609375 -11.582031 9.578125 -11.28125 C 10.734375 -10.90625 11.6875 -10.535156 12.4375 -10.171875 C 13.1875 -9.816406 13.835938 -9.257812 14.390625 -8.5 C 14.953125 -7.738281 15.234375 -6.75 15.234375 -5.53125 C 15.234375 -1.613281 12.6875 0.34375 7.59375 0.34375 C 6.75 0.34375 5.71875 0.269531 4.5 0.125 C 3.289062 -0.0195312 2.191406 -0.207031 1.203125 -0.4375 C 1.242188 -0.882812 1.332031 -1.535156 1.46875 -2.390625 C 1.601562 -3.242188 1.734375 -3.878906 1.859375 -4.296875 C 2.597656 -4.191406 3.707031 -4.066406 5.1875 -3.921875 C 6.675781 -3.773438 7.800781 -3.703125 8.5625 -3.703125 C 9.007812 -3.703125 9.273438 -3.734375 9.359375 -3.796875 C 9.484375 -3.878906 9.582031 -4.019531 9.65625 -4.21875 C 9.726562 -4.414062 9.765625 -4.585938 9.765625 -4.734375 C 9.765625 -5.160156 9.5625 -5.484375 9.15625 -5.703125 C 8.757812 -5.921875 8.078125 -6.191406 7.109375 -6.515625 C 5.953125 -6.867188 4.992188 -7.234375 4.234375 -7.609375 C 3.472656 -7.992188 2.804688 -8.585938 2.234375 -9.390625 C 1.671875 -10.191406 1.390625 -11.242188 1.390625 -12.546875 C 1.390625 -13.472656 1.597656 -14.382812 2.015625 -15.28125 C 2.441406 -16.175781 2.875 -16.78125 3.3125 -17.09375 C 3.65625 -17.332031 4.351562 -17.554688 5.40625 -17.765625 C 6.457031 -17.972656 7.445312 -18.078125 8.375 -18.078125 C 10.738281 -18.078125 12.664062 -17.859375 14.15625 -17.421875 C 14.132812 -16.992188 14.066406 -16.410156 13.953125 -15.671875 C 13.835938 -14.941406 13.71875 -14.269531 13.59375 -13.65625 L 12.859375 -13.6875 C 10.117188 -13.875 8.375 -13.96875 7.625 -13.96875 C 7.300781 -13.96875 7.117188 -13.957031 7.078125 -13.9375 C 6.992188 -13.894531 6.921875 -13.800781 6.859375 -13.65625 C 6.796875 -13.507812 6.765625 -13.34375 6.765625 -13.15625 Z M 6.765625 -13.15625 "/></g></g></g><g fill="#000000" fill-opacity="1"><g transform="translate(315.050533, 187.636598)"><g><path d="M 11.03125 0 L 5.34375 0 L 5.34375 -14.0625 L 0.25 -14.0625 L 0.25 -18.015625 L 16.125 -18.015625 L 16.125 -14.0625 L 11.03125 -14.0625 Z M 11.03125 0 "/></g></g></g><g fill="#000000" fill-opacity="1"><g transform="translate(333.003078, 187.636598)"><g><path d="M 1.421875 -18.015625 L 14.546875 -18.015625 L 14.546875 -14.21875 L 7.109375 -14.21875 L 7.109375 -10.9375 L 13.375 -10.9375 L 13.375 -7.515625 L 7.109375 -7.515625 L 7.109375 -3.859375 L 14.515625 -3.859375 L 14.515625 0 L 1.421875 0 Z M 1.421875 -18.015625 "/></g></g></g><g fill="#000000" fill-opacity="1"><g transform="translate(349.944259, 187.636598)"><g><path d="M 17.984375 0 L 12.015625 0 L 10.9375 -4.546875 C 10.894531 -4.710938 10.828125 -5 10.734375 -5.40625 C 10.640625 -5.820312 10.523438 -6.128906 10.390625 -6.328125 C 10.265625 -6.535156 10.085938 -6.671875 9.859375 -6.734375 C 9.273438 -6.710938 8.410156 -6.703125 7.265625 -6.703125 L 7.265625 0 L 1.578125 0 L 1.578125 -17.859375 C 4.128906 -18.046875 6.507812 -18.140625 8.71875 -18.140625 C 10.726562 -18.140625 12.351562 -17.972656 13.59375 -17.640625 C 14.832031 -17.316406 15.765625 -16.757812 16.390625 -15.96875 C 17.015625 -15.1875 17.328125 -14.109375 17.328125 -12.734375 C 17.328125 -11.453125 17.03125 -10.445312 16.4375 -9.71875 C 15.84375 -8.988281 14.894531 -8.550781 13.59375 -8.40625 L 13.59375 -8.21875 C 14.332031 -8.15625 14.945312 -7.914062 15.4375 -7.5 C 15.9375 -7.09375 16.269531 -6.570312 16.4375 -5.9375 Z M 7.265625 -10.265625 C 7.453125 -10.242188 7.820312 -10.234375 8.375 -10.234375 C 10 -10.234375 10.945312 -10.375 11.21875 -10.65625 C 11.46875 -10.90625 11.59375 -11.492188 11.59375 -12.421875 C 11.59375 -13.285156 11.363281 -13.875 10.90625 -14.1875 C 10.457031 -14.507812 9.71875 -14.671875 8.6875 -14.671875 C 8.457031 -14.671875 7.984375 -14.648438 7.265625 -14.609375 Z M 7.265625 -10.265625 "/></g></g></g></svg>